<svg width="36" height="36" viewBox="0 0 36 36" fill="none" xmlns="http://www.w3.org/2000/svg">
<path d="M30.845 16.1009L8.11758 16.4168L15.7285 8.59132C16.29 8.01398 16.2772 7.09094 15.6999 6.52943C15.1225 5.96792 14.1991 5.98075 13.6376 6.55809L3.57213 16.9073C3.01062 17.4847 3.02345 18.4081 3.60079 18.9692L13.95 29.0347C14.2387 29.3154 14.614 29.4528 14.9873 29.4476C15.3602 29.4424 15.7315 29.2947 16.0123 29.006C16.5738 28.4287 16.5609 27.5053 15.9836 26.9441L8.15811 19.3332L30.8855 19.0173C31.6908 19.0061 32.3346 18.3441 32.3234 17.5388C32.3122 16.7336 31.6503 16.0897 30.845 16.1009Z" fill="white"/>
</svg>
