<svg width="26" height="25" viewBox="0 0 26 25" fill="none" xmlns="http://www.w3.org/2000/svg">
    <path d="M17.8232 16.1523L18.8779 14.1602V25H17.8232V16.1523ZM19.9326 12.1094L20.9873 10.1172V25H19.9326V12.1094ZM22.042 8.125L23.0967 6.11816V25H22.042V8.125ZM14.9668 15.6543L14.3662 14.5557L21.6318 0.742188H22.8184L14.9668 15.6543ZM13.751 13.3545L13.1357 12.2412L19.2295 0.742188H20.4307L13.751 13.3545ZM6.69043 14.2773L7.74512 16.2695V25H6.69043V14.2773ZM4.58105 10.2637L5.63574 12.2559V25H4.58105V10.2637ZM2.47168 6.25L3.52637 8.25684V25H2.47168V6.25ZM10.9971 18.6719H9.81055L1.41699 2.74902V25H0.362305V0.742188H1.54883L10.9971 18.6719ZM13.3848 18.6719H12.1836L2.75 0.742188H3.95117L13.3848 18.6719ZM24.1514 2.74902L15.7578 18.6719H14.5566L5.1377 0.742188H6.32422L15.1719 17.5586L24.0049 0.742188H25.2061V25H24.1514V2.74902Z" fill="white"/>
</svg>
