<svg width="35" height="35" viewBox="0 0 35 35" fill="none" xmlns="http://www.w3.org/2000/svg">
<path d="M4.37502 18.9583H27.1046L19.3856 26.6773C18.8162 27.2468 18.8162 28.1699 19.3856 28.7394C19.9551 29.3089 20.8786 29.3089 21.4481 28.7394L31.6564 18.531C32.2259 17.9616 32.2259 17.0381 31.6564 16.469L21.4481 6.26063C21.1634 5.97589 20.79 5.83333 20.4167 5.83333C20.0437 5.83333 19.6704 5.97589 19.3856 6.26063C18.8162 6.8301 18.8162 7.75359 19.3856 8.32271L27.1046 16.0417H4.37502C3.56966 16.0417 2.91669 16.6946 2.91669 17.5C2.91669 18.3054 3.56966 18.9583 4.37502 18.9583Z" fill="white"/>
</svg>
